<svg width="114" height="29" viewBox="0 0 114 29" fill="none" xmlns="http://www.w3.org/2000/svg">
<path d="M5.65696 22H0.713778L8.24574 0.181818H14.1903L21.7116 22H16.7685L11.3033 5.16761H11.1328L5.65696 22ZM5.34801 13.424H17.0241V17.0249H5.34801V13.424ZM24.2525 28.1364V5.63636H28.7269V8.38494H28.9293C29.1282 7.9446 29.4158 7.49716 29.7923 7.04261C30.1758 6.58097 30.6729 6.19744 31.2837 5.89205C31.9016 5.57955 32.6687 5.4233 33.5849 5.4233C34.7781 5.4233 35.8789 5.7358 36.8874 6.3608C37.896 6.97869 38.7021 7.91264 39.3058 9.16264C39.9094 10.4055 40.2113 11.9645 40.2113 13.8395C40.2113 15.6648 39.9165 17.206 39.3271 18.4631C38.7447 19.7131 37.9492 20.6612 36.9407 21.3075C35.9393 21.9467 34.8171 22.2663 33.5742 22.2663C32.6935 22.2663 31.9442 22.1207 31.3263 21.8295C30.7156 21.5384 30.2148 21.1726 29.8242 20.7322C29.4336 20.2848 29.1353 19.8338 28.9293 19.3793H28.7908V28.1364H24.2525ZM28.695 13.8182C28.695 14.7912 28.8299 15.6399 29.0998 16.3643C29.3697 17.0888 29.7603 17.6534 30.2717 18.0582C30.783 18.456 31.4045 18.6548 32.136 18.6548C32.8746 18.6548 33.4996 18.4524 34.011 18.0476C34.5224 17.6357 34.9094 17.0675 35.1722 16.343C35.4421 15.6115 35.5771 14.7699 35.5771 13.8182C35.5771 12.8736 35.4457 12.0426 35.1829 11.3253C34.9201 10.608 34.533 10.0469 34.0217 9.64204C33.5103 9.23722 32.8817 9.0348 32.136 9.0348C31.3974 9.0348 30.7724 9.23011 30.261 9.62074C29.7567 10.0114 29.3697 10.5653 29.0998 11.2827C28.8299 12 28.695 12.8452 28.695 13.8182ZM50.6303 22.3196C48.9755 22.3196 47.5444 21.968 46.337 21.2649C45.1367 20.5547 44.2099 19.5675 43.5565 18.3033C42.9031 17.032 42.5763 15.5582 42.5763 13.8821C42.5763 12.1918 42.9031 10.7145 43.5565 9.45028C44.2099 8.17898 45.1367 7.19176 46.337 6.48864C47.5444 5.77841 48.9755 5.4233 50.6303 5.4233C52.2852 5.4233 53.7127 5.77841 54.913 6.48864C56.1204 7.19176 57.0508 8.17898 57.7042 9.45028C58.3576 10.7145 58.6843 12.1918 58.6843 13.8821C58.6843 15.5582 58.3576 17.032 57.7042 18.3033C57.0508 19.5675 56.1204 20.5547 54.913 21.2649C53.7127 21.968 52.2852 22.3196 50.6303 22.3196ZM50.6516 18.804C51.4045 18.804 52.033 18.5909 52.5373 18.1648C53.0415 17.7315 53.4215 17.142 53.6772 16.3963C53.94 15.6506 54.0714 14.8018 54.0714 13.8501C54.0714 12.8984 53.94 12.0497 53.6772 11.304C53.4215 10.5582 53.0415 9.96875 52.5373 9.53551C52.033 9.10227 51.4045 8.88565 50.6516 8.88565C49.8917 8.88565 49.2525 9.10227 48.734 9.53551C48.2227 9.96875 47.8356 10.5582 47.5728 11.304C47.3171 12.0497 47.1893 12.8984 47.1893 13.8501C47.1893 14.8018 47.3171 15.6506 47.5728 16.3963C47.8356 17.142 48.2227 17.7315 48.734 18.1648C49.2525 18.5909 49.8917 18.804 50.6516 18.804ZM69.0075 28.4773C67.5373 28.4773 66.2766 28.2749 65.2255 27.87C64.1815 27.4723 63.3505 26.929 62.7326 26.2401C62.1147 25.5511 61.7134 24.777 61.5288 23.9176L65.7262 23.353C65.854 23.6797 66.0565 23.9851 66.3335 24.2692C66.6104 24.5533 66.9762 24.7805 67.4308 24.951C67.8924 25.1286 68.4535 25.2173 69.114 25.2173C70.1012 25.2173 70.9144 24.9759 71.5536 24.4929C72.1999 24.017 72.5231 23.218 72.5231 22.0959V19.1023H72.3313C72.1325 19.5568 71.8342 19.9865 71.4364 20.3913C71.0387 20.7962 70.5273 21.1264 69.9023 21.3821C69.2773 21.6378 68.5316 21.7656 67.6651 21.7656C66.4364 21.7656 65.3178 21.4815 64.3093 20.9134C63.3079 20.3381 62.5089 19.4609 61.9123 18.282C61.3228 17.0959 61.0281 15.5973 61.0281 13.7862C61.0281 11.9325 61.3299 10.3842 61.9336 9.14133C62.5373 7.89844 63.3398 6.96804 64.3413 6.35014C65.3498 5.73224 66.4542 5.4233 67.6545 5.4233C68.5707 5.4233 69.3377 5.57955 69.9556 5.89205C70.5735 6.19744 71.0707 6.58097 71.4471 7.04261C71.8306 7.49716 72.1254 7.9446 72.3313 8.38494H72.5018V5.63636H77.0082V22.1598C77.0082 23.5518 76.6673 24.7166 75.9854 25.6541C75.3036 26.5916 74.359 27.2947 73.1516 27.7635C71.9513 28.2393 70.57 28.4773 69.0075 28.4773ZM69.1033 18.3565C69.8349 18.3565 70.4528 18.1754 70.957 17.8132C71.4684 17.4439 71.859 16.9183 72.1289 16.2365C72.4059 15.5476 72.5444 14.7237 72.5444 13.7649C72.5444 12.8061 72.4094 11.9751 72.1396 11.272C71.8697 10.5618 71.479 10.0114 70.9677 9.62074C70.4563 9.23011 69.8349 9.0348 69.1033 9.0348C68.3576 9.0348 67.729 9.23722 67.2177 9.64204C66.7063 10.0398 66.3192 10.5937 66.0565 11.304C65.7937 12.0142 65.6623 12.8345 65.6623 13.7649C65.6623 14.7095 65.7937 15.5263 66.0565 16.2152C66.3263 16.897 66.7134 17.4261 67.2177 17.8026C67.729 18.1719 68.3576 18.3565 69.1033 18.3565ZM88.0771 22.3196C86.3938 22.3196 84.945 21.9787 83.7305 21.2969C82.5231 20.608 81.5927 19.6349 80.9393 18.3778C80.2859 17.1136 79.9592 15.6186 79.9592 13.8928C79.9592 12.2095 80.2859 10.7322 80.9393 9.46094C81.5927 8.18963 82.5124 7.19886 83.6985 6.48864C84.8917 5.77841 86.2908 5.4233 87.896 5.4233C88.9755 5.4233 89.9805 5.5973 90.9109 5.94531C91.8484 6.28622 92.6651 6.80114 93.3612 7.49006C94.0643 8.17898 94.6112 9.04545 95.0018 10.0895C95.3924 11.1264 95.5877 12.3409 95.5877 13.733V14.9794H81.7702V12.1669H91.3157C91.3157 11.5135 91.1737 10.9347 90.8896 10.4304C90.6055 9.92614 90.2113 9.53196 89.707 9.24787C89.2099 8.95668 88.631 8.81108 87.9705 8.81108C87.2816 8.81108 86.6708 8.97088 86.1381 9.29048C85.6126 9.60298 85.2006 10.0256 84.9023 10.5582C84.604 11.0838 84.4513 11.6697 84.4442 12.3161V14.9901C84.4442 15.7997 84.5934 16.4993 84.8917 17.0888C85.1971 17.6783 85.6268 18.1328 86.1808 18.4524C86.7347 18.772 87.3917 18.9318 88.1516 18.9318C88.6559 18.9318 89.1175 18.8608 89.5366 18.7188C89.9556 18.5767 90.3143 18.3636 90.6126 18.0795C90.9109 17.7955 91.1381 17.4474 91.2944 17.0355L95.4918 17.3125C95.2788 18.321 94.842 19.2017 94.1815 19.9545C93.5281 20.7003 92.6829 21.2827 91.646 21.7017C90.6161 22.1136 89.4265 22.3196 88.0771 22.3196ZM106.007 22.3196C104.324 22.3196 102.875 21.9787 101.66 21.2969C100.453 20.608 99.5224 19.6349 98.869 18.3778C98.2156 17.1136 97.8888 15.6186 97.8888 13.8928C97.8888 12.2095 98.2156 10.7322 98.869 9.46094C99.5224 8.18963 100.442 7.19886 101.628 6.48864C102.821 5.77841 104.221 5.4233 105.826 5.4233C106.905 5.4233 107.91 5.5973 108.841 5.94531C109.778 6.28622 110.595 6.80114 111.291 7.49006C111.994 8.17898 112.541 9.04545 112.931 10.0895C113.322 11.1264 113.517 12.3409 113.517 13.733V14.9794H99.6999V12.1669H109.245C109.245 11.5135 109.103 10.9347 108.819 10.4304C108.535 9.92614 108.141 9.53196 107.637 9.24787C107.14 8.95668 106.561 8.81108 105.9 8.81108C105.211 8.81108 104.6 8.97088 104.068 9.29048C103.542 9.60298 103.13 10.0256 102.832 10.5582C102.534 11.0838 102.381 11.6697 102.374 12.3161V14.9901C102.374 15.7997 102.523 16.4993 102.821 17.0888C103.127 17.6783 103.556 18.1328 104.11 18.4524C104.664 18.772 105.321 18.9318 106.081 18.9318C106.586 18.9318 107.047 18.8608 107.466 18.7188C107.885 18.5767 108.244 18.3636 108.542 18.0795C108.841 17.7955 109.068 17.4474 109.224 17.0355L113.422 17.3125C113.208 18.321 112.772 19.2017 112.111 19.9545C111.458 20.7003 110.613 21.2827 109.576 21.7017C108.546 22.1136 107.356 22.3196 106.007 22.3196Z" fill="#20B486"/>
</svg>
