<svg width="112" height="31" viewBox="0 0 112 31" fill="none" xmlns="http://www.w3.org/2000/svg">
<path d="M0.046875 24L4.03125 -7.15256e-07H14.4375C16.2656 -7.15256e-07 17.7617 0.246093 18.9258 0.738281C20.0977 1.23047 20.9258 1.92578 21.4102 2.82422C21.9023 3.72266 22.0469 4.78125 21.8437 6C21.6875 6.875 21.3516 7.67578 20.8359 8.40234C20.3281 9.12109 19.6836 9.73047 18.9023 10.2305C18.1289 10.7227 17.2656 11.0625 16.3125 11.25L16.2656 11.4844C17.2969 11.5156 18.1953 11.7734 18.9609 12.2578C19.7266 12.7344 20.2891 13.3984 20.6484 14.25C21.0078 15.0937 21.0938 16.0781 20.9063 17.2031C20.6875 18.5156 20.1523 19.6836 19.3008 20.707C18.4492 21.7305 17.3438 22.5352 15.9844 23.1211C14.625 23.707 13.0781 24 11.3438 24H0.046875ZM7.45313 18.7969H10.5C11.5781 18.7969 12.4258 18.5898 13.043 18.1758C13.668 17.7617 14.0391 17.1562 14.1563 16.3594C14.25 15.7969 14.2031 15.3203 14.0156 14.9297C13.8281 14.5391 13.5117 14.2422 13.0664 14.0391C12.6211 13.8359 12.0625 13.7344 11.3906 13.7344H8.25L7.45313 18.7969ZM8.95312 9.70312H11.625C12.1875 9.70312 12.7031 9.61328 13.1719 9.43359C13.6406 9.25391 14.0273 8.99219 14.332 8.64844C14.6367 8.30469 14.8281 7.89062 14.9063 7.40625C15.0234 6.65625 14.8438 6.08594 14.3672 5.69531C13.8984 5.30469 13.2656 5.10937 12.4687 5.10937H9.70313L8.95312 9.70312ZM30.8086 24.3281C28.8555 24.3281 27.2461 23.9414 25.9805 23.168C24.7227 22.3867 23.8398 21.3008 23.332 19.9102C22.8242 18.5117 22.7227 16.8906 23.0273 15.0469C23.332 13.2031 23.9688 11.5859 24.9375 10.1953C25.9062 8.79687 27.1523 7.71094 28.6758 6.9375C30.1992 6.15625 31.9414 5.76563 33.9023 5.76563C35.8477 5.76563 37.4492 6.15625 38.707 6.9375C39.9727 7.71094 40.8594 8.79687 41.3672 10.1953C41.8828 11.5859 41.9883 13.2031 41.6836 15.0469C41.3789 16.8906 40.7383 18.5117 39.7617 19.9102C38.7852 21.3008 37.5352 22.3867 36.0117 23.168C34.4961 23.9414 32.7617 24.3281 30.8086 24.3281ZM31.6055 19.5469C32.168 19.5469 32.6797 19.3633 33.1406 18.9961C33.6094 18.6289 34.0078 18.1055 34.3359 17.4258C34.6719 16.7461 34.918 15.9375 35.0742 15C35.2305 14.0547 35.2539 13.2461 35.1445 12.5742C35.0352 11.8945 34.8086 11.3711 34.4648 11.0039C34.1211 10.6367 33.668 10.4531 33.1055 10.4531C32.543 10.4531 32.0273 10.6367 31.5586 11.0039C31.0898 11.3711 30.6914 11.8945 30.3633 12.5742C30.0352 13.2461 29.793 14.0547 29.6367 15C29.4805 15.9375 29.4531 16.7461 29.5547 17.4258C29.6641 18.1055 29.8906 18.6289 30.2344 18.9961C30.5859 19.3633 31.043 19.5469 31.6055 19.5469ZM41.7305 30.75L45.8789 6H52.3008L51.7852 9.14062H51.9258C52.2539 8.53125 52.6836 7.97266 53.2148 7.46484C53.7539 6.94922 54.3867 6.53906 55.1133 6.23437C55.8477 5.92187 56.6602 5.76563 57.5508 5.76563C58.7383 5.76563 59.8125 6.08203 60.7734 6.71484C61.7344 7.34766 62.4414 8.34375 62.8945 9.70312C63.3477 11.0625 63.3945 12.8281 63.0352 15C62.6914 17.0781 62.0781 18.8008 61.1953 20.168C60.3203 21.5352 59.2891 22.5547 58.1016 23.2266C56.9219 23.8984 55.6914 24.2344 54.4102 24.2344C53.5664 24.2344 52.8359 24.0977 52.2188 23.8242C51.6016 23.543 51.1055 23.1641 50.7305 22.6875C50.3555 22.2031 50.0977 21.6562 49.957 21.0469H49.8164L48.2227 30.75H41.7305ZM50.707 15C50.5664 15.875 50.5547 16.6328 50.6719 17.2734C50.7969 17.9062 51.043 18.3984 51.4102 18.75C51.7852 19.0938 52.2695 19.2656 52.8633 19.2656C53.457 19.2656 53.9883 19.0977 54.457 18.7617C54.9258 18.418 55.3242 17.9297 55.6523 17.2969C55.9805 16.6562 56.2227 15.8906 56.3789 15C56.5195 14.1094 56.5313 13.3477 56.4141 12.7148C56.2969 12.0742 56.0586 11.5859 55.6992 11.25C55.3398 10.9062 54.8633 10.7344 54.2695 10.7344C53.6758 10.7344 53.1328 10.9062 52.6406 11.25C52.1563 11.5859 51.7461 12.0742 51.4102 12.7148C51.082 13.3477 50.8477 14.1094 50.707 15ZM72.8174 24.3281C70.8955 24.3281 69.3018 23.9609 68.0361 23.2266C66.7705 22.4844 65.8799 21.4219 65.3643 20.0391C64.8486 18.6484 64.7549 16.9844 65.083 15.0469C65.3955 13.1875 66.04 11.5625 67.0166 10.1719C68.001 8.78125 69.2393 7.69922 70.7314 6.92578C72.2314 6.15234 73.9111 5.76563 75.7705 5.76563C77.1299 5.76563 78.3213 5.97656 79.3447 6.39844C80.376 6.82031 81.2158 7.43359 81.8643 8.23828C82.5127 9.04297 82.9502 10.0156 83.1768 11.1562C83.4111 12.2891 83.4111 13.5703 83.1768 15L82.9424 16.5H66.8643L67.4268 12.9375H77.5518C77.6299 12.4219 77.5791 11.9687 77.3994 11.5781C77.2275 11.1797 76.9502 10.8711 76.5674 10.6523C76.1924 10.4258 75.7393 10.3125 75.208 10.3125C74.6768 10.3125 74.1768 10.4258 73.708 10.6523C73.2471 10.8789 72.8525 11.1953 72.5244 11.6016C72.2041 12.0078 71.9893 12.4844 71.8799 13.0312L71.1768 16.7812C71.083 17.3594 71.1182 17.875 71.2822 18.3281C71.4463 18.7813 71.7314 19.1367 72.1377 19.3945C72.5439 19.6523 73.0674 19.7813 73.708 19.7813C74.1455 19.7813 74.5596 19.7227 74.9502 19.6055C75.3486 19.4805 75.7002 19.3008 76.0049 19.0664C76.3174 18.8242 76.5674 18.5312 76.7549 18.1875H82.6611C82.2393 19.4375 81.5713 20.5234 80.6572 21.4453C79.751 22.3594 78.6338 23.0703 77.3057 23.5781C75.9854 24.0781 74.4893 24.3281 72.8174 24.3281ZM102.738 11.8594H96.9258C96.957 11.4844 96.8906 11.1641 96.7266 10.8984C96.5625 10.6328 96.332 10.4297 96.0352 10.2891C95.7461 10.1484 95.418 10.0781 95.0508 10.0781C94.4102 10.0781 93.8281 10.2227 93.3047 10.5117C92.7813 10.793 92.4883 11.1641 92.4258 11.625C92.3867 11.8047 92.4453 11.9727 92.6016 12.1289C92.7578 12.2852 93.168 12.4297 93.832 12.5625L97.3945 13.2187C99.1758 13.5469 100.473 14.1445 101.285 15.0117C102.105 15.8711 102.402 17.0078 102.176 18.4219C101.965 19.6484 101.426 20.7031 100.559 21.5859C99.6914 22.4687 98.5898 23.1484 97.2539 23.625C95.9258 24.0937 94.457 24.3281 92.8477 24.3281C90.0117 24.3281 87.8867 23.7617 86.4727 22.6289C85.0664 21.4961 84.4258 20.0156 84.5508 18.1875H90.832C90.8477 18.7734 91.043 19.2148 91.418 19.5117C91.8008 19.8008 92.3086 19.9531 92.9414 19.9687C93.6289 19.9922 94.2305 19.8555 94.7461 19.5586C95.2617 19.2539 95.5508 18.875 95.6133 18.4219C95.6367 18.1641 95.5234 17.9687 95.2734 17.8359C95.0313 17.7031 94.5664 17.5703 93.8789 17.4375L90.7852 16.875C89.0039 16.5547 87.707 15.9141 86.8945 14.9531C86.082 13.9844 85.8008 12.75 86.0508 11.25C86.2539 10.0547 86.7383 9.05078 87.5039 8.23828C88.2773 7.42578 89.293 6.8125 90.5508 6.39844C91.8086 5.97656 93.2617 5.76563 94.9102 5.76563C97.6055 5.76563 99.6445 6.30859 101.027 7.39453C102.418 8.47266 102.988 9.96094 102.738 11.8594Z" fill="black"/>
<path d="M107.373 24.375C106.459 24.375 105.713 24.0586 105.135 23.4258C104.564 22.7852 104.326 22.0078 104.42 21.0937C104.514 20.2031 104.916 19.4414 105.627 18.8086C106.346 18.1758 107.162 17.8594 108.076 17.8594C108.943 17.8594 109.666 18.1758 110.244 18.8086C110.83 19.4414 111.076 20.2031 110.982 21.0937C110.92 21.7031 110.705 22.2578 110.338 22.7578C109.979 23.25 109.533 23.6445 109.002 23.9414C108.479 24.2305 107.936 24.375 107.373 24.375Z" fill="#3AB0AD"/>
</svg>
